<?xml version="1.0" encoding="UTF-8"?>
<svg id="Layer_2" data-name="Layer 2" xmlns="http://www.w3.org/2000/svg" viewBox="0 0 57.07 46.24">
  <defs>
    <style>
      .cls-1 {
        fill: #fff;
        stroke-width: 0px;
      }
    </style>
  </defs>
  <g id="Layer_2-2" data-name="Layer 2">
    <g>
      <path class="cls-1" d="M27.2,23.29c-9.19-.92-15.57.18-16.49,3.04-.75,2.35,2.3,6.06,8.17,9.94,1,.66,2.06,1.31,3.18,1.96-.03-.82-.01-1.65.05-2.48.37-4.76,2.24-9.05,5.09-12.45Z"/>
      <path class="cls-1" d="M34.07,44.04c.15-.61.44-1.03.69-1.37.31-.43.46-.66.37-1.06-.27-1.2-2.25-1.89-3.1-2.19-1.03-.36-1.64-.37-2.13-.37-.5,0-.97,0-1.52-.42-1.19-.89-1.28-2.44-1.36-3.81-.06-1.13-.13-2.2-.8-2.62-.47-.3-1.2-.26-2.17.1-.3,1.15-.5,2.33-.6,3.55-.08,1.07-.07,2.13,0,3.17,3.17,1.75,6.75,3.44,10.62,5.02Z"/>
      <path class="cls-1" d="M34.26,46.24c-.07-.2-.14-.4-.19-.61-3.75-1.51-7.26-3.14-10.4-4.82.31,1.9.88,3.72,1.68,5.42h8.91Z"/>
      <path class="cls-1" d="M22.19,40.01c-1.47-.83-2.85-1.66-4.13-2.5-4.7-3.1-10.04-7.64-8.76-11.62,1.23-3.82,8.25-5.22,19.14-3.95,4.43-4.48,10.72-7.06,17.47-6.53,4.18.33,7.99,1.81,11.17,4.1V1.55c0-.85-.69-1.55-1.55-1.55H1.55C.69,0,0,.69,0,1.55v43.15c0,.85.69,1.55,1.55,1.55h22.34c-.85-1.96-1.44-4.05-1.69-6.23ZM50.34,3.27c0-.52.42-.94.94-.94h2.53c.52,0,.94.42.94.94v2.79c0,.52-.42.94-.94.94h-2.53c-.52,0-.94-.42-.94-.94v-2.79ZM40.85,3.27c0-.52.42-.94.94-.94h2.53c.52,0,.94.42.94.94v2.79c0,.52-.42.94-.94.94h-2.53c-.52,0-.94-.42-.94-.94v-2.79ZM31.35,3.27c0-.52.42-.94.94-.94h2.53c.52,0,.94.42.94.94v2.79c0,.52-.42.94-.94.94h-2.53c-.52,0-.94-.42-.94-.94v-2.79ZM21.85,3.27c0-.52.42-.94.94-.94h2.53c.52,0,.94.42.94.94v2.79c0,.52-.42.94-.94.94h-2.53c-.52,0-.94-.42-.94-.94v-2.79ZM12.36,3.27c0-.52.42-.94.94-.94h2.53c.52,0,.94.42.94.94v2.79c0,.52-.42.94-.94.94h-2.53c-.52,0-.94-.42-.94-.94v-2.79ZM7.26,6.06c0,.52-.42.94-.94.94h-2.53c-.52,0-.94-.42-.94-.94v-2.79c0-.52.42-.94.94-.94h2.53c.52,0,.94.42.94.94v2.79Z"/>
      <path class="cls-1" d="M39.14,29.54c-.68.6-.78.69-.92.92-.35.57-.22.86-.5,1.72-.22.69-.52,1.62-1.11,1.74-.39.08-.84-.21-1.31-.52-.44-.29-.55-.48-.86-.52-.35-.05-.61.16-.93.38-1.38.91-2.03.6-2.36,1.28-.19.39-.17.95.09,1.27.29.34.65.17,1.58.54.3.12.68.27,1.07.59.41.34.66.69,1.03,1.34.33.58.74,1.36,1.16,2.33.08-.15.21-.35.42-.55.53-.5,1.16-.58,1.36-.61.82-.13,1.41.16,2.04.46.61.3,1.31.64,2.47.77.26.03.37.03.46.03.14,0,.24,0,.46.04,1.04.19,1.6.65,2.18,1.14.38.32.78.65,1.37.96.63.33,1.11.44,1.48.52.49.11.94.2,1.29.73.35.54.41,1.25.18,2.11h5.73c.85,0,1.55-.69,1.55-1.55v-2.89c-.79-.79-1.8-1.11-2-1.11-.14,0-.3,0-.3,0-.28.04-.66.08-1.25-.04-1.91-.38-3.05-1.91-3.26-2.21-1.21-1.72-1.47-4.33-.52-5.07.32-.25.69-.23.86-.6.22-.47-.21-.88-.29-1.63-.09-.79.26-1.54.57-1.94.85-1.09,2.04-.43,3.26-1.54.1-.09,1.03-.96,1.07-2.16.03-.99-.59-1.09-.87-2.25-.45-1.89.82-3.16.02-4.06-.05-.06-.32-.21-.86-.52-1.34-.75-1.82-.83-2.23-.77-.12.02-.22.05-.41.11-1.06.34-1.81.91-2.05,1.09-1.24.94-1.69,1.28-2.36,1.85-1.22,1.06-2.19,1.89-3.58,1.82-.87-.04-1.43-.31-1.68-.79-.26-.5.3-1.09.06-1.33-.21-.21-.77.05-.93.12-.8.37-.78.85-1.44,1.23-.68.4-1.47.33-1.82.31-.83-.07-1.14-.38-1.66-.15-.43.19-.63.6-.66.66-.16.33-.2.67-.1.87.23.47,1.48.43,2.22.41.9-.03,1.55-.27,2.07-.46.94-.34,1.48-.26,1.81-.09.88.45,1.21,2.22.68,3.46-.46,1.08-1.7,1.99-2.29,2.52Z"/>
    </g>
  </g>
</svg>